<?xml version="1.0" standalone="no"?>
<!DOCTYPE svg PUBLIC "-//W3C//DTD SVG 20010904//EN"
 "http://www.w3.org/TR/2001/REC-SVG-20010904/DTD/svg10.dtd">
<svg version="1.0" xmlns="http://www.w3.org/2000/svg"
 width="1040.000000pt" height="1040.000000pt" viewBox="0 0 1040.000000 1040.000000"
 preserveAspectRatio="xMidYMid meet">
<metadata>
Created by potrace 1.14, written by Peter Selinger 2001-2017
</metadata>
<g transform="translate(0.000000,1040.000000) scale(0.100000,-0.100000)"
fill="#000000" stroke="none">
<path d="M1510 6001 c0 -962 2 -1148 15 -1248 48 -361 174 -631 400 -858 159
-160 305 -249 532 -325 361 -120 811 -119 1180 5 219 73 387 173 541 319 199
191 330 417 393 682 48 203 49 217 49 1422 l0 1132 -505 0 -504 0 -3 -1132 -3
-1133 -28 -79 c-35 -100 -68 -155 -127 -216 -97 -99 -250 -147 -436 -137 -264
15 -421 143 -481 393 -15 62 -17 184 -20 1187 l-4 1117 -499 0 -500 0 0 -1129z"/>
<path d="M6838 6420 c-257 -41 -476 -167 -615 -354 l-43 -58 0 191 0 191 -505
0 -505 0 0 -2120 0 -2120 505 0 505 0 2 875 3 874 51 -67 c186 -246 534 -381
890 -344 674 70 1114 652 1114 1472 0 752 -382 1315 -984 1446 -83 19 -336 27
-418 14z m-13 -885 c92 -24 169 -71 239 -145 111 -118 150 -230 150 -430 0
-205 -47 -335 -163 -451 -156 -155 -374 -191 -579 -94 -193 91 -292 278 -292
547 1 197 48 327 159 439 72 72 140 112 229 133 77 19 185 19 257 1z"/>
</g>
</svg>
